<svg width="17" height="17" viewBox="0 0 17 17" fill="none" xmlns="http://www.w3.org/2000/svg">
<path d="M3.76963 6.85872C5.47931 3.83347 6.33416 2.32084 7.50718 1.93147C8.15251 1.71726 8.84765 1.71726 9.49298 1.93147C10.666 2.32084 11.5208 3.83347 13.2305 6.85872C14.9402 9.88397 15.7951 11.3966 15.5386 12.6291C15.3976 13.3072 15.05 13.9222 14.5457 14.386C13.6291 15.2291 11.9195 15.2291 8.50008 15.2291C5.08071 15.2291 3.37102 15.2291 2.45443 14.386C1.95018 13.9222 1.60261 13.3072 1.46153 12.6291C1.20509 11.3966 2.05994 9.88397 3.76963 6.85872Z" stroke="#3B3E6C" stroke-width="1.2"/>
<path d="M8.67159 12.0416V9.2083C8.67159 8.87439 8.67159 8.70744 8.56786 8.6037C8.46412 8.49997 8.29717 8.49997 7.96326 8.49997" stroke="#3B3E6C" stroke-width="1.2" stroke-linecap="round" stroke-linejoin="round"/>
<path d="M8.49437 6.37497H8.50073" stroke="#3B3E6C" stroke-width="1.2" stroke-linecap="round" stroke-linejoin="round"/>
</svg>
