<svg width="23" height="24" viewBox="0 0 23 24" fill="none" xmlns="http://www.w3.org/2000/svg">
<path d="M17.25 6.24994H17.95C17.95 5.86334 17.6366 5.54994 17.25 5.54994V6.24994ZM5.25502 17.2551C4.98166 17.5284 4.98166 17.9717 5.25503 18.245C5.5284 18.5184 5.97161 18.5184 6.24498 18.245L5.25502 17.2551ZM10.5417 5.54994C10.1551 5.54994 9.84167 5.86334 9.84167 6.24994C9.84167 6.63654 10.1551 6.94994 10.5417 6.94994V5.54994ZM16.55 12.9583C16.55 13.3449 16.8634 13.6583 17.25 13.6583C17.6366 13.6583 17.95 13.3449 17.95 12.9583H16.55ZM17.25 6.24994L16.755 5.75497L5.25502 17.2551L5.75 17.75L6.24498 18.245L17.745 6.74491L17.25 6.24994ZM10.5417 6.24994V6.94994H17.25V6.24994V5.54994H10.5417V6.24994ZM17.25 6.24994H16.55V12.9583H17.25H17.95V6.24994H17.25Z" fill="white"/>
</svg>
