<svg width="17" height="17" viewBox="0 0 17 17" fill="none" xmlns="http://www.w3.org/2000/svg">
<g clip-path="url(#clip0_4001_2375)">
<path d="M8.50005 15.5834C4.58804 15.5834 1.41675 12.412 1.41675 8.50002C1.41675 4.588 4.58806 1.41669 8.50008 1.41669C11.6717 1.41669 14.3266 3.50124 15.2292 6.37502H13.4584" stroke="#3B3E6C" stroke-width="1.2" stroke-linecap="round" stroke-linejoin="round"/>
<path d="M8.5 5.66669V8.50002L9.91667 9.91669" stroke="#3B3E6C" stroke-width="1.2" stroke-linecap="round" stroke-linejoin="round"/>
<path d="M15.5515 9.20833C15.5726 8.97519 15.5833 8.73892 15.5833 8.5M10.625 15.5833C10.867 15.5037 11.1033 15.4108 11.3333 15.3055M14.7267 12.0417C14.8633 11.7785 14.9851 11.5056 15.0911 11.2244M12.8863 14.329C13.1303 14.1271 13.3614 13.9087 13.5779 13.6754" stroke="#3B3E6C" stroke-width="1.2" stroke-linecap="round" stroke-linejoin="round"/>
</g>
<defs>
<clipPath id="clip0_4001_2375">
<rect width="17" height="17" fill="white"/>
</clipPath>
</defs>
</svg>
