<svg width="15" height="15" viewBox="0 0 15 15" fill="none" xmlns="http://www.w3.org/2000/svg">
<g clip-path="url(#clip0_4001_1931)">
<path fill-rule="evenodd" clip-rule="evenodd" d="M13.0141 5.86413L10.526 8.03556L11.2713 11.2684C11.352 11.6139 11.2179 11.9742 10.931 12.1829C10.644 12.3916 10.26 12.4082 9.95613 12.225L7.13648 10.5148L4.3229 12.225C4.01901 12.4082 3.63501 12.3916 3.34807 12.1829C3.06114 11.9742 2.92705 11.6139 3.00769 11.2684L3.75191 8.03887L1.26327 5.86413C0.994143 5.63202 0.890466 5.26115 1.00021 4.92313C1.10995 4.58511 1.41171 4.34587 1.76585 4.31611L5.04615 4.03199L6.32661 0.977879C6.46334 0.650191 6.78362 0.436788 7.13869 0.436788C7.49376 0.436788 7.81403 0.650191 7.95076 0.977879L9.23508 4.03199L12.5143 4.31611C12.8684 4.34587 13.1702 4.58511 13.2799 4.92313C13.3897 5.26115 13.286 5.63202 13.0169 5.86413H13.0141Z" fill="#71B6F5"/>
</g>
<defs>
<clipPath id="clip0_4001_1931">
<rect width="14.1231" height="14.1231" fill="white" transform="translate(0.0771484 3.05176e-05)"/>
</clipPath>
</defs>
</svg>
