<svg width="26" height="26" viewBox="0 0 26 26" fill="none" xmlns="http://www.w3.org/2000/svg">
<path d="M17.3335 17.875L21.6668 22.2083M19.5002 12.4583C19.5002 13.9582 19.0554 15.4243 18.2221 16.6714C17.3889 17.9185 16.2045 18.8905 14.8188 19.4644C13.4332 20.0384 11.9084 20.1886 10.4374 19.896C8.96638 19.6034 7.61515 18.8811 6.55461 17.8206C5.49406 16.76 4.77182 15.4088 4.47921 13.9378C4.18661 12.4667 4.33678 10.942 4.91075 9.55632C5.48471 8.17064 6.45669 6.98629 7.70376 6.15302C8.95083 5.31975 10.417 4.875 11.9168 4.875" stroke="#3B3E6C" stroke-width="1.5" stroke-linecap="round" stroke-linejoin="round"/>
<path d="M16.792 5.08368C17.0676 5.82186 17.2792 6.32669 17.6631 6.71063C18.0478 7.09533 18.5521 7.30813 19.29 7.58368C18.5524 7.85913 18.0478 8.07102 17.6641 8.45477C17.2794 8.83943 17.0675 9.34399 16.792 10.0817C16.5165 9.34398 16.3037 8.83954 15.9199 8.45575C15.5351 8.07102 15.0302 7.85935 14.292 7.58368C15.0304 7.30799 15.535 7.0956 15.9189 6.71161C16.3038 6.32671 16.5162 5.82216 16.792 5.08368Z" stroke="#3B3E6C" stroke-width="0.9" stroke-linecap="round" stroke-linejoin="round"/>
</svg>
