<svg width="17" height="17" viewBox="0 0 17 17" fill="none" xmlns="http://www.w3.org/2000/svg">
<path d="M8.49999 15.5833V6.37501M6.3764 12.7514C5.2027 12.7514 4.2514 11.7746 4.2514 10.6016C3.70662 10.5239 3.20319 10.2671 2.82042 9.87175C2.43765 9.47638 2.19731 8.9649 2.13725 8.41789C2.07719 7.87088 2.20084 7.31943 2.48871 6.85044C2.77657 6.38144 3.2123 6.02155 3.72724 5.82746C3.55422 5.44167 3.50024 5.01303 3.57217 4.59638C3.64411 4.17973 3.83871 3.79401 4.13107 3.48856C4.42344 3.18312 4.80027 2.97183 5.21338 2.88174C5.62648 2.79164 6.05707 2.82683 6.45007 2.9828C6.57296 2.53308 6.84028 2.13624 7.21087 1.85338C7.58146 1.57052 8.03476 1.41734 8.50097 1.41742C8.96717 1.4175 9.42042 1.57084 9.79091 1.85383C10.1614 2.13681 10.4286 2.53375 10.5513 2.98351C10.9443 2.82754 11.3749 2.79235 11.788 2.88245C12.2011 2.97254 12.578 3.18383 12.8703 3.48927C13.1627 3.79472 13.3573 4.18044 13.4292 4.59709C13.5012 5.01374 13.4472 5.44238 13.2742 5.82817C13.7882 6.02283 14.2231 6.38276 14.5103 6.85142C14.7976 7.32008 14.921 7.8709 14.8611 8.41732C14.8013 8.96374 14.5616 9.47479 14.1797 9.87017C13.7978 10.2656 13.2954 10.5229 12.7514 10.6016C12.7514 11.7746 11.8001 12.7514 10.6264 12.7514M8.49999 10.625L10.2708 8.85417M8.49999 9.20834L6.72915 7.43751M7.08332 15.5833H9.91665" stroke="#3B3E6C" stroke-width="1.2" stroke-linecap="round" stroke-linejoin="round"/>
</svg>
