<svg width="17" height="17" viewBox="0 0 17 17" fill="none" xmlns="http://www.w3.org/2000/svg">
<g clip-path="url(#clip0_4001_2334)">
<path d="M4.25004 8.5H12.75L14.1667 15.5833H2.83337L4.25004 8.5Z" stroke="#3B3E6C" stroke-width="1.2" stroke-linejoin="round"/>
<path d="M6.375 15.5833L6.85557 13.2464C6.9646 12.7162 7.01912 12.4511 7.21494 12.2949C7.6233 11.9694 9.34667 11.9454 9.78506 12.2949C9.98091 12.4511 10.0354 12.7162 10.1445 13.2464L10.625 15.5833" stroke="#3B3E6C" stroke-width="1.2" stroke-linecap="round" stroke-linejoin="round"/>
<path d="M8.5 2.26669L3.92732 5.97712C2.63319 7.02723 1.98613 7.55227 2.15001 8.02615C2.31389 8.50002 3.14254 8.50002 4.79984 8.50002H12.2002C13.8575 8.50002 14.6861 8.50002 14.85 8.02615C15.0139 7.55227 14.3668 7.02723 13.0726 5.97712L8.5 2.26669ZM8.5 2.26669L9.54755 1.41669M8.5 2.26669L7.45244 1.41669" stroke="#3B3E6C" stroke-width="1.2" stroke-linecap="round" stroke-linejoin="round"/>
<path d="M8.5 8.5V6.375" stroke="#3B3E6C" stroke-width="1.2" stroke-linecap="round" stroke-linejoin="round"/>
<path d="M5.66663 8.5V7.4375" stroke="#3B3E6C" stroke-width="1.2" stroke-linecap="round" stroke-linejoin="round"/>
<path d="M11.3334 8.5V7.4375" stroke="#3B3E6C" stroke-width="1.2" stroke-linecap="round" stroke-linejoin="round"/>
<path d="M1.41663 15.5833H15.5833" stroke="#3B3E6C" stroke-width="1.2" stroke-linecap="round" stroke-linejoin="round"/>
</g>
<defs>
<clipPath id="clip0_4001_2334">
<rect width="17" height="17" fill="white"/>
</clipPath>
</defs>
</svg>
