<svg width="375" height="390" viewBox="0 0 375 390" fill="none" xmlns="http://www.w3.org/2000/svg">
<path opacity="0.09" d="M270.769 -363.739L236.42 169.741L206.415 -364L270.769 -363.739Z" fill="url(#paint0_linear_4001_2405)"/>
<path opacity="0.09" d="M637.843 -183.252L236.324 169.698L592.526 -228.936L637.843 -183.252Z" fill="url(#paint1_linear_4001_2405)"/>
<path opacity="0.09" d="M-116.419 -231.819L236.524 169.698L-162.109 -186.508L-116.419 -231.819Z" fill="url(#paint2_linear_4001_2405)"/>
<path opacity="0.09" d="M472.394 -309.933L236.371 169.727L413.044 -334.82L472.394 -309.933Z" fill="url(#paint3_linear_4001_2405)"/>
<path opacity="0.09" d="M-243.109 -66.3781L236.558 169.653L-268 -7.03105L-243.109 -66.3781Z" fill="url(#paint4_linear_4001_2405)"/>
<path opacity="0.06" d="M64.1976 -336.333L236.477 169.727L4.64062 -311.968L64.1976 -336.333Z" fill="url(#paint5_linear_4001_2405)"/>
<path opacity="0.15" d="M226.5 192C200.307 192 179 170.469 179 143.999C179 117.533 200.307 96 226.5 96C252.692 96 274 117.533 274 143.999C274 170.469 252.693 192 226.5 192Z" fill="#FFDD15"/>
<path opacity="0.14" d="M226.5 184C204.719 184 187 166.282 187 144.5C187 122.72 204.719 105 226.5 105C248.281 105 266 122.72 266 144.5C266 166.282 248.281 184 226.5 184Z" fill="#F9C300"/>
<path opacity="0.27" d="M438.194 135.038C420.168 135.038 403.732 141.734 391.183 152.766C380.287 127.34 355.039 109.523 325.62 109.523C298.168 109.523 274.348 125.056 262.43 147.796C254.144 144.418 245.08 142.543 235.563 142.543C211.367 142.543 190.008 154.597 177.129 173.015C168.274 165.269 156.686 160.554 144.002 160.554C133.712 160.554 124.152 163.649 116.188 168.95C105.099 158.523 90.18 152.123 73.757 152.123C56.1 152.123 40.179 159.521 28.892 171.372C18.894 154.138 0.251999 142.543 -21.104 142.543C-40.002 142.543 -56.782 151.61 -67.32 165.644C-71.958 114.822 -114.662 75 -166.7 75C-197.875 75 -225.719 89.29 -244 111.683V237.931C-236.466 247.149 -227.309 254.995 -216.968 261.033C-228.18 273.625 -234.994 290.211 -234.994 308.402C-234.994 347.772 -203.069 379.698 -163.697 379.698C-139.877 379.698 -118.789 368.007 -105.849 350.053C-94.202 358.309 -79.989 363.187 -64.632 363.187C-61.06 363.187 -57.547 362.916 -54.111 362.408C-41.623 373.169 -25.382 379.698 -7.595 379.698C19.137 379.698 42.417 364.975 54.62 343.212C57.351 343.511 60.129 343.675 62.95 343.675C71.145 343.675 79.043 342.357 86.441 339.951C99.409 357.664 120.362 369.191 144.003 369.191C155.622 369.191 166.578 366.4 176.274 361.461C185.97 366.4 196.927 369.191 208.546 369.191C227.595 369.191 244.869 361.716 257.657 349.558C270.716 366.083 290.919 376.696 313.614 376.696C326.358 376.696 338.32 373.333 348.678 367.463C362.066 364.493 374.028 357.769 383.41 348.431C396.303 361.267 414.074 369.191 433.693 369.191C443.328 369.191 452.501 367.27 460.876 363.817C472.013 377.523 488.133 387.024 506.49 389.531V185.921C497.709 156.504 470.48 135.038 438.194 135.038Z" fill="white"/>
<path opacity="0.32" d="M301.776 62.4679C301.692 58.4342 299.42 55.2 296.62 55.2C295.459 55.2 294.392 55.762 293.529 56.7009C292.124 53.8262 288.855 51.8108 285.046 51.8108C284.149 51.8108 283.283 51.9247 282.464 52.1325C281.642 49.5738 279.86 47.798 277.787 47.798C276.251 47.798 274.877 48.775 273.931 50.3178C272.261 47.7306 269.223 46 265.751 46C262.117 46 258.957 47.897 257.345 50.6883C252.636 51.1007 248.918 53.5996 248.36 56.7436C247.871 56.6659 247.369 56.6233 246.856 56.6233C242.125 56.6233 237 60.0832 237 64.3542C237 67.0139 239.781 69.3594 242.047 70.751C241.757 71.3846 241.593 72.0605 241.593 72.7672C241.593 76.2226 245.357 79.0246 250.001 79.0246C252.547 79.0246 254.823 78.1789 256.366 76.8489C257.723 76.4762 258.924 75.4607 259.808 74.0218C261.234 78.158 264.18 81 267.585 81C270.456 81 273 78.9797 274.582 75.8685C275.472 76.595 276.497 77.0142 277.59 77.0142C279.18 77.0142 280.622 76.1308 281.713 74.6946C282.816 77.0694 284.688 78.6324 286.812 78.6324C289.087 78.6324 291.068 76.8341 292.13 74.1672C304.218 75.9473 308 71.2384 308 67.6421C308 65.5335 305.079 62.1447 301.776 62.4679Z" fill="#FFFEF8"/>
<path opacity="0.7" d="M118.297 38.202C118.226 35.213 116.285 32.817 113.896 32.817C112.905 32.817 111.994 33.233 111.257 33.929C110.058 31.8 107.267 30.306 104.016 30.306C103.25 30.306 102.511 30.391 101.812 30.544C101.112 28.648 99.5894 27.332 97.8204 27.332C96.5104 27.332 95.3374 28.057 94.5294 29.199C93.1044 27.282 90.5104 26 87.5474 26C84.4454 26 81.7484 27.405 80.3714 29.473C76.3504 29.779 74.0984 33.753 73.6224 36.082C73.2044 36.024 66.7744 36.082 66.0434 42.812C65.5014 47.793 70.1384 50.467 74.1034 50.467C76.2774 50.467 78.2194 49.841 79.5364 48.855C80.6944 48.579 81.7204 47.827 82.4744 46.76C83.6914 49.825 86.2064 51.93 89.1134 51.93C91.5634 51.93 93.7344 50.433 95.0864 48.128C95.8464 48.666 96.7204 48.977 97.6534 48.977C99.0094 48.977 100.242 48.323 101.173 47.258C102.115 49.018 103.712 50.176 105.526 50.176C107.467 50.176 109.159 48.844 110.065 46.867C120.383 48.186 123.612 44.697 123.612 42.033C123.61 40.473 121.117 37.962 118.297 38.202Z" fill="#D1E8FC"/>
<defs>
<linearGradient id="paint0_linear_4001_2405" x1="238.592" y1="-364" x2="238.592" y2="169.741" gradientUnits="userSpaceOnUse">
<stop stop-color="white"/>
<stop offset="1" stop-color="#E7F9FE"/>
</linearGradient>
<linearGradient id="paint1_linear_4001_2405" x1="437.084" y1="-228.936" x2="437.084" y2="169.698" gradientUnits="userSpaceOnUse">
<stop stop-color="white"/>
<stop offset="1" stop-color="#E7F9FE"/>
</linearGradient>
<linearGradient id="paint2_linear_4001_2405" x1="37.2071" y1="-231.819" x2="37.2071" y2="169.698" gradientUnits="userSpaceOnUse">
<stop stop-color="white"/>
<stop offset="1" stop-color="#E7F9FE"/>
</linearGradient>
<linearGradient id="paint3_linear_4001_2405" x1="354.383" y1="-334.82" x2="354.383" y2="169.727" gradientUnits="userSpaceOnUse">
<stop stop-color="white"/>
<stop offset="1" stop-color="#E7F9FE"/>
</linearGradient>
<linearGradient id="paint4_linear_4001_2405" x1="-15.721" y1="-66.3781" x2="-15.721" y2="169.653" gradientUnits="userSpaceOnUse">
<stop stop-color="white"/>
<stop offset="1" stop-color="#E7F9FE"/>
</linearGradient>
<linearGradient id="paint5_linear_4001_2405" x1="120.559" y1="-336.333" x2="120.559" y2="169.727" gradientUnits="userSpaceOnUse">
<stop stop-color="white"/>
<stop offset="1" stop-color="#E7F9FE"/>
</linearGradient>
</defs>
</svg>
