<svg width="28" height="29" viewBox="0 0 28 29" fill="none" xmlns="http://www.w3.org/2000/svg">
<path d="M12.2499 21.153L9.33325 19.9863L3.86859 21.8075C3.69329 21.8658 3.50664 21.8818 3.32399 21.8539C3.14134 21.826 2.96792 21.7552 2.818 21.6472C2.66809 21.5392 2.54596 21.3971 2.46169 21.2327C2.37741 21.0683 2.33339 20.8862 2.33325 20.7015V6.70729C2.33337 6.49068 2.39378 6.27838 2.50773 6.09417C2.62168 5.90996 2.78466 5.76111 2.97842 5.66428L8.84909 2.72778C9.00078 2.65212 9.16713 2.61041 9.33658 2.60558C9.50603 2.60074 9.67449 2.63289 9.83025 2.69978L17.4999 5.98629H24.4999C24.8093 5.98629 25.1061 6.1092 25.3249 6.32799C25.5437 6.54679 25.6666 6.84353 25.6666 7.15295V12.403" stroke="#0D0F33" stroke-width="2" stroke-linecap="round" stroke-linejoin="round"/>
<path d="M9.33325 2.48627V19.9863" stroke="#0D0F33" stroke-width="2" stroke-linejoin="round"/>
<path d="M17.5 5.98627V11.2363" stroke="#0D0F33" stroke-width="2" stroke-linecap="round" stroke-linejoin="round"/>
<path d="M20.8799 25.5886C22.1621 24.9073 25.6667 22.7396 25.6667 19.403C25.6667 18.7135 25.531 18.0308 25.2671 17.3939C25.0033 16.7569 24.6166 16.1782 24.1291 15.6906C23.6416 15.2031 23.0628 14.8164 22.4258 14.5526C21.7889 14.2887 21.1062 14.153 20.4167 14.153C19.7273 14.153 19.0446 14.2887 18.4077 14.5526C17.7707 14.8164 17.1919 15.2031 16.7044 15.6906C16.2169 16.1782 15.8302 16.7569 15.5664 17.3939C15.3025 18.0308 15.1667 18.7135 15.1667 19.403C15.1667 22.7396 18.6714 24.9073 19.9536 25.5886C20.096 25.665 20.2551 25.705 20.4167 25.705C20.5784 25.705 20.7375 25.665 20.8799 25.5886Z" stroke="#0D0F33" stroke-width="2" stroke-linejoin="round"/>
<path d="M20.4167 19.403H20.4297" stroke="#0D0F33" stroke-width="2" stroke-linecap="round" stroke-linejoin="round"/>
</svg>
