<svg width="15" height="15" viewBox="0 0 15 15" fill="none" xmlns="http://www.w3.org/2000/svg">
<g clip-path="url(#clip0_4001_1935)">
<path fill-rule="evenodd" clip-rule="evenodd" d="M13.9655 4.92131C13.8563 4.58453 13.5563 4.34563 13.2037 4.31446L9.92722 4.03199L8.6429 0.977879C8.50617 0.650191 8.1859 0.436788 7.83083 0.436788C7.47576 0.436788 7.15548 0.650191 7.01875 0.977879L5.73829 4.03199L2.45799 4.31611C2.10385 4.34587 1.80209 4.58511 1.69235 4.92313C1.5826 5.26115 1.68628 5.63202 1.9554 5.86413L4.44405 8.03887L3.69817 11.2684C3.61754 11.6139 3.75162 11.9742 4.03856 12.1829C4.32549 12.3916 4.7095 12.4082 5.01338 12.225L7.82696 10.5148L10.6466 12.225C10.9505 12.4082 11.3345 12.3916 11.6214 12.1829C11.9084 11.9742 12.0425 11.6139 11.9618 11.2684L11.2165 8.03556L13.7046 5.86413C13.9737 5.63121 14.0766 5.25945 13.9655 4.92131ZM13.1259 5.19715L10.6378 7.36857C10.391 7.58323 10.2832 7.91676 10.3575 8.23526L11.1051 11.4703L8.28762 9.76012C8.00739 9.58946 7.65536 9.58946 7.37514 9.76012L4.56155 11.4703L5.30412 8.23747C5.37849 7.91896 5.27064 7.58544 5.02386 7.37078L2.53467 5.20046C2.53447 5.19881 2.53447 5.19714 2.53467 5.19549L5.81387 4.91193C6.14016 4.88317 6.42369 4.6761 6.55037 4.37404L7.83083 1.32378L9.11073 4.37404C9.23741 4.6761 9.52094 4.88317 9.84723 4.91193L13.127 5.19549C13.127 5.19549 13.127 5.1988 13.127 5.19935L13.1259 5.19715Z" fill="#71B6F5"/>
</g>
<defs>
<clipPath id="clip0_4001_1935">
<rect width="14.1231" height="14.1231" fill="white" transform="translate(0.769287 3.05176e-05)"/>
</clipPath>
</defs>
</svg>
